<svg width="233" height="28" viewBox="0 0 233 28" fill="none" xmlns="http://www.w3.org/2000/svg">
<path id="zz logo" fill-rule="evenodd" clip-rule="evenodd" d="M8.23446 0.134521H0L13.2688 27.1404H20.8398L34.0696 0.134521H25.9132L17.0543 18.906L8.23446 0.134521ZM37.2161 0.134521V27.1404H44.5529V0.134521H37.2161ZM57.5489 20.2329V0.134521H50.212V27.1404H76.0471V20.2329H57.5489ZM99.1422 0.134521H91.5712L77.5219 27.1404H85.3661L87.7076 22.1842H103.006L105.347 27.1404H113.192L99.1422 0.134521ZM95.3567 7.00308L99.9618 16.0181H90.7517L95.3567 7.00308ZM133.307 18.984L138.224 27.1404H146.341L140.292 17.9694C142.14 17.2409 143.492 16.1742 144.351 14.7692C145.236 13.3643 145.678 11.6602 145.678 9.65684V9.61781C145.678 8.18686 145.444 6.886 144.975 5.71522C144.507 4.54445 143.792 3.55579 142.829 2.74926C141.892 1.91671 140.696 1.27928 139.239 0.836988C137.782 0.368677 136.051 0.134521 134.048 0.134521H116.526V27.1404H123.784V18.984H133.307ZM123.784 12.7789V6.61282H134.048C135.479 6.61282 136.559 6.83397 137.287 7.27626C138.042 7.69254 138.419 8.47305 138.419 9.61781V9.65684C138.419 10.8797 138.042 11.7122 137.287 12.1545C136.559 12.5708 135.479 12.7789 134.048 12.7789H123.784ZM175.973 6.69087V0.134521H150.216V27.1404H175.973V20.5841H157.475V16.8766H173.787V10.3983H157.475V6.69087H175.973ZM203.65 20.7792H190.38L192.098 19.4914L208.449 6.49574H221.719L220.002 7.7836L203.65 20.7792ZM203.65 27.1404H179.726V20.7792L196.078 7.7836L197.795 6.49574H179.883V0.134521H203.806H208.449H232.373V6.49574L216.021 19.4914L214.304 20.7792H232.841V27.1404H208.918H203.65Z" fill="#FFE5B1"/>
</svg>
